<svg className="logo" version="1.1" id="Layer_1" xmlns="http://www.w3.org/2000/svg" xmlns:xlink="http://www.w3.org/1999/xlink" x="0px" y="0px"
	 viewBox="0 0 1200 410.56" style="enable-background:new 0 0 1200 410.56;" xml:space="preserve">
<style type="text/css">
	.st0{fill:#FFFFFF;}
	.st1{fill:#FF5100;}
</style>
<g>
	<g>
		<path class="st0" d="M1118.74,130.15c-5.79,0-10.5,4.71-10.5,10.5c0,5.79,4.71,10.5,10.5,10.5c5.79,0,10.5-4.71,10.5-10.5
			C1129.24,134.86,1124.53,130.15,1118.74,130.15z M1118.74,149.63c-4.95,0-8.98-4.03-8.98-8.98c0-4.95,4.03-8.98,8.98-8.98
			s8.98,4.03,8.98,8.98C1127.73,145.6,1123.7,149.63,1118.74,149.63z M1120.54,141.74c-0.21-0.19-0.51-0.38-0.92-0.57
			c1.1-0.15,1.92-0.51,2.44-1.07c0.53-0.56,0.79-1.24,0.79-2.06c0-0.63-0.16-1.21-0.48-1.73c-0.32-0.52-0.74-0.89-1.28-1.09
			c-0.53-0.21-1.31-0.31-2.33-0.31h-5.09v11.48h1.52v-5.1h1.76c0.39,0,0.67,0.02,0.85,0.05c0.23,0.06,0.47,0.16,0.69,0.31
			c0.23,0.15,0.48,0.4,0.77,0.77c0.29,0.37,0.65,0.89,1.1,1.58l1.52,2.39h1.91l-2-3.12
			C1121.41,142.65,1120.99,142.14,1120.54,141.74z M1118.47,139.98h-3.27v-3.8h3.63c0.85,0,1.47,0.17,1.87,0.52
			c0.39,0.35,0.59,0.8,0.59,1.34c0,0.37-0.1,0.71-0.31,1.03c-0.2,0.32-0.5,0.55-0.89,0.69
			C1119.71,139.9,1119.16,139.98,1118.47,139.98z M402.59,221.54h-27.17l27.52-110.92h27.17l25.22,69.16l17.16-69.16h27.17
			l-27.52,110.92h-27.17l-25.22-69.16L402.59,221.54z M530.97,223.18c25.36,0,49.44-16.03,55.82-41.72
			c6.24-25.14-10.26-41.9-35.07-41.9c-25,0-49.81,16.76-56.05,41.9C489.3,207.14,505.43,223.18,530.97,223.18z M522.62,181.64
			c2.49-10.02,9.5-20.77,23.81-20.77c14.13,0,15.81,10.75,13.32,20.77c-2.53,10.2-9.18,20.95-23.67,20.95
			C521.41,202.59,520.09,191.84,522.62,181.64z M617.6,221.54h-27.17l19.93-80.34h27.17l-2.44,9.84
			c7.15-6.92,16.84-11.66,27.35-11.66c21.37,0,26.41,14.76,20.98,36.62l-11.3,45.54h-27.17l11.3-45.54c2.35-9.47,0-14.57-8.52-14.57
			c-8.51,0-17.47,9.11-20.19,20.04L617.6,221.54z M833.27,165.61h-26.63c0.9-7.29-5.3-9.29-10.56-9.29
			c-5.25,0-11.55,2.73-12.72,7.47c-2.8,11.29,51.67-0.18,43.27,33.7c-4.7,18.95-22.54,25.87-45.73,25.87
			c-23.73,0-39.45-8.93-35.25-31.7h26.99c-2.98,12.02,7.52,12.75,13.5,12.75c6.16,0,12-2.37,13.08-6.74
			c4.2-16.94-50.72-3.64-43.49-32.79c4.07-16.39,18.83-25.5,45.28-25.5C822.02,139.38,835.48,147.21,833.27,165.61z M901.99,141.2
			l-5.24,21.13h-14.49l-14.69,59.21h-26.99l14.69-59.21h-14.49l5.24-21.13h14.49l4.98-20.07l29.61-10.54l-7.59,30.61H901.99z
			 M954.39,139.56c-25,0-49.81,16.76-56.05,41.9c-6.37,25.68,9.76,41.72,35.3,41.72c25.36,0,49.44-16.03,55.82-41.72
			C995.7,156.32,979.2,139.56,954.39,139.56z M962.42,181.64c-2.53,10.2-9.18,20.95-23.67,20.95c-14.67,0-15.99-10.75-13.46-20.95
			c2.49-10.02,9.5-20.77,23.81-20.77C963.23,160.87,964.91,171.62,962.42,181.64z M1068,139.38c-10.32,0-21.01,2.92-30.24,11.66
			l2.44-9.84h-27.17l-27.07,109.11h27.17l9.54-38.43c3.4,8.2,14.18,11.48,24.5,11.48c22.64,0,44.55-19.68,50.07-41.9
			S1090.65,139.38,1068,139.38z M1068.25,181.46c-2.62,10.57-13.12,20.04-23.99,20.04c-10.87,0-16.67-9.47-14.05-20.04
			c2.62-10.57,13.12-20.04,23.99-20.04C1065.07,161.42,1070.87,170.89,1068.25,181.46z M413.26,233.66l-5.89,23.74
			c-2.98-5.33-8.73-7.11-14.91-7.11c-13.8,0-27.19,12.11-30.55,25.65c-3.36,13.55,4.04,25.54,17.84,25.54c6.18,0,13.86-2,18.41-7
			l-1.46,5.89h16.57l16.55-66.72H413.26z M402.77,275.95c-1.6,6.44-8,12.21-14.62,12.21c-6.63,0-10.16-5.77-8.56-12.21
			c1.6-6.44,8-12.22,14.62-12.22S404.37,269.51,402.77,275.95z M461.8,250.41c-15.24,0-30.36,10.22-34.16,25.54
			c-3.89,15.66,5.95,25.43,21.51,25.43c15.46,0,30.14-9.77,34.03-25.43C486.98,260.62,476.93,250.41,461.8,250.41z M466.7,276.06
			c-1.54,6.22-5.6,12.77-14.43,12.77c-8.94,0-9.75-6.55-8.2-12.77c1.52-6.11,5.79-12.66,14.51-12.66
			C467.19,263.4,468.21,269.95,466.7,276.06z M534.17,257.4c-3.37-5.55-8.73-7.11-14.91-7.11c-13.8,0-27.16,12-30.52,25.54
			c-3.36,13.55,4.02,25.65,17.82,25.65c6.18,0,13.86-2,18.43-7.11l-1.93,7.77c-1.74,7-8.58,13.66-15.87,13.66
			c-5.3,0-8.97-3.44-8.75-9.22h-16.56c-2.92,14.88,9.89,21.54,23.14,21.54c15.46,0,31.08-11.77,35.08-27.87l12.12-48.86h-16.57
			L534.17,257.4z M529.6,275.84c-1.63,6.55-8.02,12.32-14.65,12.32c-6.62,0-10.16-5.77-8.53-12.32c1.6-6.44,8-12.22,14.62-12.22
			C527.66,263.62,531.2,269.4,529.6,275.84z M645.33,251.41l-29.27,48.97h-18.88l-1.92-30.54l-16.96,30.54h-18.99l-4.64-48.97h18.11
			l2,31.98l18.65-31.98h12.81l2.88,31.98l17.98-31.98H645.33z M673.67,250.3c-16.34,0-30.94,10.33-34.74,25.65
			c-3.86,15.55,5.26,25.54,22.04,25.54c12.92,0,24.9-6.44,30.97-19.32h-16.9c-0.99,3.55-5.6,7.44-11.45,7.44c-6.51,0-9-6-7.6-11.66
			h37.76c0.25-1,0.64-2.11,0.88-3.11C698.52,259.18,688.47,250.3,673.67,250.3z M679.92,270.06h-21.75c0,0,2.81-9.11,13.19-9.11
			C681.41,260.96,679.92,270.06,679.92,270.06z M746.81,251.52l-1.46,5.89c-2.98-5.33-8.73-7.11-14.91-7.11
			c-13.8,0-27.19,12.11-30.55,25.65s4.04,25.54,17.84,25.54c6.18,0,13.86-2,18.41-7l-1.46,5.89h16.57l12.12-48.86H746.81z
			 M740.75,275.95c-1.6,6.44-8,12.21-14.62,12.21s-10.16-5.77-8.56-12.21c1.6-6.44,8-12.22,14.62-12.22S742.35,269.51,740.75,275.95
			z M804.12,250.3c1.43,0,3.53,0.44,4.69,1.11l-3.75,15.1h-0.22c-1.16-2-3.4-2.78-5.94-2.78c-6.18,0-12.5,6.33-13.96,12.22
			l-6.06,24.43h-16.56l12.15-48.97h16.56l-1.49,6C792.99,253.74,798.04,250.3,804.12,250.3z M732.76,194.76h-41.88l5.24-21.13h41.88
			L732.76,194.76z"/>
		<path class="st1" d="M164.53,215.13c11.74,14.62,22.09,30.26,30.82,46.67l-52.05,75.11c-2,2.89-5.96,5.23-8.85,5.23
			c0,0-63.16,0-63.15,0c-2.88-0.01-5.21-2.34-5.21-5.23V133.43c22.6,12.03,43.9,27.07,63.16,44.42v88.18L164.53,215.13z
			 M334.58,68.43L334.58,68.43l-63.16,0c-2.09,0-2.09,0,0,0h0c2.88,0,5.22,2.34,5.22,5.23l0,192.4l-42.12-60.78l38.77-55.94
			c-0.8-4.14-1.69-8.29-2.74-12.49c-4.2-16.88-10.24-33.3-17.75-49.1l-49.87,71.95l-59.63-86.05c-2-2.89-5.96-5.23-8.85-5.23
			l-63.15,0c2.88,0.01,6.83,2.34,8.83,5.23l182.43,263.25c2,2.89,5.96,5.23,8.85,5.23h63.16l0,0c2.88,0,5.22-2.34,5.22-5.23
			l0-263.25C339.8,70.77,337.47,68.43,334.58,68.43z"/>
	</g>
</g>
</svg>